<?xml version="1.0" encoding="UTF-8"?>
<svg id="Calque_2" data-name="Calque 2" xmlns="http://www.w3.org/2000/svg" viewBox="0 0 122.13 104.95">
  <defs>
    <style>
      .cls-1 {
        fill: #a6539b;
      }
    </style>
  </defs>
  <g id="Calque_1-2" data-name="Calque 1">
    <g>
      <path class="cls-1" d="M65,13.78c17.81,3.57,30.63,19.93,30.97,37.97,9.1-.28,10.45,13.37,4.88,18.38-2.33,2.1-6.21,2.11-6.53,2.37-.17.14-.73,3.4-1.11,4.35-6.28,15.49-16.26,18.63-30.54,23.46-8.19,2.77-16.79,8.27-25.26,1.1-4.29-3.63-3.86-2.8-8.46-5.32-8.53-4.68-16.95-13.75-18.61-23.61-12.49.42-14.36-20.3-1.68-20.72.29-17.23,12.38-33.2,29.17-37.47,1.46-17.85,27.86-20.01,27.18-.5ZM67.82,95.98c12.44-4.02,22.23-13.82,24.42-26.99l1.13-.6c2.4,1.71,3.58,1.24,5.49-.82,2.62-2.81,3.11-7.63,1.05-10.86-2.74-4.28-5.35.31-6.54-1.5-.27-.41-.74-7.96-1.11-9.8-2.3-11.36-10.17-21.61-20.78-26.32-1.53-.68-6.4-2.67-7.65-2.11-.94.42-1.91,2.37-3.31,3.05-3.82,1.85-9.93.34-11.27-3.99-1.5-4.84,2.9-8.06,3.62-5.31.32,1.21-1.2,2.12-.89,3.68,1.09,5.51,9.57,4.21,10.13-2.01.52-5.82-5.07-9.95-10.58-9.42-12.85,1.24-14.36,20.96,0,22.29,2.48.23,5.3-1.47,5.96,1.48-7.42,4.21-17.61-1.16-18.96-9.47-13.32,3.4-23.34,14.8-26.14,28.15-.42,1.99-.86,9.38-1.13,9.79-1.19,1.8-2.63-1.94-5.77.56-4.04,3.22-2.52,13.52,3.12,13.52,1.14,0,2.54-1.9,3.79-.32,1.16,8.71,6.97,17.11,14.11,22.08,1.28.89,5.3,3.4,6.57,3.77,1.08.32.76-.19.84-.84,1.15-8.8,4.2-13.22,11.22-18.66,3.99-3.09,8.79-6.23,10.04,1.14.34.36,4.95-2.11,7.79,1.11,1.52,1.72,5.22,8,5.42,10.14.1,1.04-.48,1.95-.47,2.83.03,1.8.94,3.34-.1,5.46ZM60.92,78.75c-2.7-2.24-11.62,4.23-12.64,3.75-.34-.16-.74-.89-1.13-1.17,1.51-2.43,8.95-4.36,3.73-6.61-7.54,3.79-21.15,18.49-10.03,25.54,5.81,3.69,18.35.03,23.23-4.3.56-.5,3.43-3.33,1.17-3.42-1.15-.05-7.58,5.75-7.16.59,1.45-.38,9.58-3.63,7.44-5.77-1.08-1.08-6.65,2.85-8.02,3.2-1.02.26-1.06.27-1.74-.62-.27-1.52-.03-1.07.73-1.57,1.12-.73,9.79-3.97,6.74-5.91-1.71-1.09-7.03,3.34-9.04,3.64-3,.45-1.4-1.56.22-2.67.91-.62,7.67-3.15,6.51-4.69Z"/>
      <path class="cls-1" d="M118.08,74.73c.88.09,2.34.99,3.67.63l.38,1.68-2.3,1.17c-3.31-1.34-7.56.1-10.69-.88-1.62-.51-1.12-.9-1.11-2.6,3.25.23,6.86-.32,10.05,0Z"/>
      <path class="cls-1" d="M115.92,61.63c2.03-.53,3.17.52,1.58,2.18-.6.62-7.57,5.26-8.3,5.5-1.15.38-1.56.42-2.32-.62-.24-1.24,7.88-6.75,9.04-7.06Z"/>
      <path class="cls-1" d="M106.04,81.63c1.38-.36,9.69,6.07,9.45,7.17-.53,2.51-5.95-1.64-6.84-2.34s-5.63-4.05-2.61-4.83Z"/>
      <path class="cls-1" d="M38.33,67.08c-4.43,4.83-11.24-3.04-6.44-7.3,4.9-4.35,10.6,2.76,6.44,7.3Z"/>
      <path class="cls-1" d="M67.07,58.76c6.98-2.11,8.77,8.28,2.62,9.55-6.08,1.26-7.17-8.17-2.62-9.55Z"/>
      <path class="cls-1" d="M37.17,46.09l1.64.48c2.2,3.14-7.84,7.95-10.48,7.92-1.55-.02-2.84-1.64-.49-2.78,3.54-1.71,6.56-1.73,9.33-5.62Z"/>
      <path class="cls-1" d="M65.81,46.01c1.12-.33,3.83,3.27,5.64,4.12,1.34.63,6.49,1.35,6.13,3.05-2.7,4.49-16.88-5.64-11.77-7.17Z"/>
      <path class="cls-1" d="M55.03,68.54c.6.52.82,1.99-.16,2.16-.7.12-1.63-.53-2.34-.52-.96.02-3.36,1.13-3.67-.35-.46-2.17,4.62-2.65,6.18-1.3Z"/>
    </g>
  </g>
</svg>